# xmcd
#
# Track frame offsets: 
#        150
#        27080
#        42345
#        58212
#        80120
#        97685
#        111400
#        129055
#        145020
#        161595
#
# Disc length: 2483 seconds
#
# Revision: 4
# Processed by: cddbd v1.5.2PL0 Copyright (c) Steve Scherf et al.
# Submitted via: ExactAudioCopy v0.99pb4
#
DISCID=7c09b10a
DTITLE=Lightnin' Hopkins - Soul Blues
DYEAR=1991
DGENRE=Blues
TTITLE0=I'm Going to Build Me a Heaven of My Own
TTITLE1=My Babe
TTITLE2=Too Many Drivers
TTITLE3=I'm a Crawling Black Snake
TTITLE4=Rocky Mountain Blues
TTITLE5=I Mean Goodbye
TTITLE6=The Howling Wolf
TTITLE7=Black Ghost Blues
TTITLE8=Darling, Do You Remember Me?
TTITLE9=Lonesome Graveyard
EXTD=
EXTT0=
EXTT1=
EXTT2=
EXTT3=
EXTT4=
EXTT5=
EXTT6=
EXTT7=
EXTT8=
EXTT9=
PLAYORDER=
